<?xml version="1.0" encoding="UTF-8"?>
<svg xmlns="http://www.w3.org/2000/svg" xmlns:xlink="http://www.w3.org/1999/xlink" width="134pt" height="135.3pt" viewBox="0 0 134 135.3" version="1.1">
<defs>
<clipPath id="clip1">
  <path d="M 13 107 L 61 107 L 61 135.300781 L 13 135.300781 Z M 13 107 "/>
</clipPath>
<clipPath id="clip2">
  <path d="M 52 130 L 58 130 L 58 135.300781 L 52 135.300781 Z M 52 130 "/>
</clipPath>
</defs>
<g id="surface1">
<path style=" stroke:none;fill-rule:evenodd;fill:rgb(0%,0%,0%);fill-opacity:1;" d="M 74.832031 3.402344 L 74.832031 3.675781 C 74.832031 4.316406 76.085938 5.738281 76.753906 5.738281 L 77.992188 5.738281 C 79.03125 5.738281 80.054688 4.484375 80.054688 3.402344 L 80.054688 2.851563 C 80.054688 2.421875 79.800781 2.058594 79.640625 1.753906 C 77.347656 1.753906 74.832031 -0.0859375 74.832031 3.402344 Z M 74.832031 3.402344 "/>
<path style=" stroke:none;fill-rule:evenodd;fill:rgb(0%,0%,0%);fill-opacity:1;" d="M 33.597656 8.894531 C 33.597656 9.703125 33.390625 11.230469 34.558594 11.230469 L 35.246094 11.230469 C 35.640625 11.230469 36.347656 10.597656 36.347656 9.996094 L 36.347656 9.445313 C 36.347656 9.070313 35.355469 8.210938 35.109375 8.210938 C 34.390625 8.210938 34.113281 8.710938 33.597656 8.894531 Z M 33.597656 8.894531 "/>
<path style=" stroke:none;fill-rule:evenodd;fill:rgb(0%,0%,0%);fill-opacity:1;" d="M 29.609375 12.054688 C 29.941406 12.683594 30.175781 13.429688 31.121094 13.429688 L 31.398438 13.429688 C 31.867188 13.429688 32.636719 12.703125 32.636719 12.054688 L 32.636719 11.914063 C 32.636719 11.222656 32.140625 10.539063 31.398438 10.539063 L 30.984375 10.539063 C 30.039063 10.539063 29.792969 11.269531 29.609375 12.054688 Z M 29.609375 12.054688 "/>
<path style=" stroke:none;fill-rule:evenodd;fill:rgb(0%,0%,0%);fill-opacity:1;" d="M 58.886719 11.78125 C 59.363281 12.679688 59.75 14.117188 61.085938 14.117188 L 61.910156 14.117188 C 63.753906 14.117188 62.953125 9.859375 60.675781 9.859375 L 60.535156 9.859375 C 59.378906 9.859375 59.109375 10.828125 58.886719 11.78125 Z M 58.886719 11.78125 "/>
<path style=" stroke:none;fill-rule:evenodd;fill:rgb(0%,0%,0%);fill-opacity:1;" d="M 40.332031 13.980469 C 40.332031 14.441406 40.949219 15.078125 41.570313 15.078125 C 42.414063 15.078125 42.804688 14.425781 42.804688 13.566406 C 42.804688 13.234375 42.175781 12.605469 41.84375 12.605469 L 41.292969 12.605469 C 40.722656 12.605469 40.332031 13.367188 40.332031 13.980469 Z M 40.332031 13.980469 "/>
<path style=" stroke:none;fill-rule:evenodd;fill:rgb(0%,0%,0%);fill-opacity:1;" d="M 40.332031 13.980469 C 40.332031 13.367188 40.722656 12.605469 41.292969 12.605469 L 41.84375 12.605469 C 42.175781 12.605469 42.804688 13.234375 42.804688 13.566406 C 42.804688 14.425781 42.414063 15.078125 41.570313 15.078125 C 40.949219 15.078125 40.332031 14.441406 40.332031 13.980469 Z M 38.820313 7.386719 C 38.820313 8.734375 38.453125 9.710938 38.285156 10.972656 C 38.195313 11.644531 38.054688 14.390625 37.445313 14.390625 L 37.308594 14.390625 C 36.707031 14.390625 36.808594 14.117188 36.207031 14.117188 L 35.382813 14.117188 C 33.613281 14.117188 26.175781 19.753906 26.175781 20.710938 L 26.175781 20.847656 C 26.175781 21.035156 29.613281 25.621094 30.019531 26.203125 C 30.382813 26.730469 33.925781 31.425781 34.148438 31.425781 C 34.398438 31.425781 37.859375 28.535156 37.859375 28.402344 C 37.859375 27.996094 34.421875 23.453125 34.421875 23.453125 C 34.421875 22.742188 36.871094 21.578125 37.472656 21.148438 C 37.808594 20.902344 40.632813 18.925781 40.746094 18.925781 C 41.429688 18.925781 43.472656 23.433594 44.679688 23.738281 L 45.523438 8.53125 L 45.003906 8.210938 C 43.792969 8.210938 41.292969 7.109375 39.644531 7.109375 L 39.371094 7.109375 C 39.148438 7.109375 38.933594 7.273438 38.820313 7.386719 Z M 38.820313 7.386719 "/>
<path style=" stroke:none;fill-rule:evenodd;fill:rgb(0%,0%,0%);fill-opacity:1;" d="M 72.355469 1.753906 L 72.355469 17.960938 C 73.167969 17.945313 78.742188 14.445313 79.640625 13.839844 C 79.640625 13.015625 79.640625 12.191406 79.640625 11.367188 C 79.640625 10.164063 79.328125 9.65625 80.3125 9.859375 C 80.847656 9.96875 84.105469 10.648438 84.0625 11.097656 L 82.527344 21.398438 C 83.363281 21.839844 85.113281 22.304688 86.160156 22.714844 C 87.417969 23.203125 88.472656 23.753906 89.628906 24.328125 C 90.421875 24.722656 95.945313 27.992188 95.996094 27.992188 C 96.382813 27.992188 98.609375 24.199219 98.609375 24.007813 C 98.609375 23.078125 93.296875 20.304688 92.269531 19.90625 C 91.660156 19.664063 91.046875 19.414063 90.429688 19.128906 C 89.289063 18.597656 89.390625 19.226563 89.398438 17.550781 C 89.40625 15.816406 89.332031 14.359375 89.675781 12.878906 C 91.480469 13.300781 96.101563 15.894531 97.621094 16.890625 C 98.558594 17.503906 104.382813 21.515625 104.382813 22.222656 L 104.382813 22.359375 C 104.382813 22.671875 102.007813 25.21875 101.632813 25.929688 C 101.863281 26.273438 104.988281 28.675781 105.34375 28.675781 L 105.894531 28.675781 C 105.992188 28.3125 110.308594 24.007813 110.566406 24.007813 C 111.414063 24.007813 118.234375 27.851563 118.8125 27.851563 C 119.199219 27.851563 119.746094 27.277344 119.914063 27.027344 C 119.625 25.789063 117.109375 23.316406 116.21875 22.339844 C 115.773438 21.851563 114.605469 20.824219 114.039063 20.398438 C 112.136719 18.953125 113.066406 19.746094 110.980469 19.746094 L 110.566406 19.746094 C 110.34375 19.746094 110.15625 19.664063 110.15625 19.472656 C 110.15625 19.101563 110.84375 18.367188 110.84375 17.550781 C 110.84375 16.914063 105.726563 13.132813 104.933594 12.605469 C 103.863281 11.898438 102.820313 11.199219 101.714844 10.460938 C 100.578125 9.703125 99.277344 9.1875 98.210938 8.472656 C 96.21875 7.132813 85.351563 2.714844 82.273438 2.609375 L 80.742188 2.441406 L 80.742188 3.265625 C 80.742188 5.070313 79.175781 6.5625 77.441406 6.5625 L 77.304688 6.5625 C 76.664063 6.5625 76.875 6.285156 75.929688 6.285156 C 75.324219 5.378906 74.144531 4.996094 74.144531 3.402344 L 74.144531 2.851563 C 74.144531 2.253906 74.417969 2.351563 74.417969 1.753906 L 74.417969 1.617188 C 74.417969 1.300781 74.324219 1.203125 74.007813 1.203125 L 72.90625 1.203125 C 72.585938 1.203125 72.355469 1.433594 72.355469 1.753906 Z M 72.355469 1.753906 "/>
<path style=" stroke:none;fill-rule:evenodd;fill:rgb(0%,0%,0%);fill-opacity:1;" d="M 54.488281 26.203125 C 54.488281 26.453125 55.757813 27.691406 56.015625 27.871094 L 57.03125 26.953125 L 57.238281 26.910156 L 55.589844 25.105469 C 55.273438 25.316406 54.488281 25.746094 54.488281 26.203125 Z M 54.488281 26.203125 "/>
<path style=" stroke:none;fill-rule:evenodd;fill:rgb(0%,0%,0%);fill-opacity:1;" d="M 47.34375 4.234375 C 47.363281 5.265625 54.726563 14.945313 55.835938 16.617188 C 56.84375 18.140625 63.925781 28.183594 64.730469 28.683594 L 64.933594 25.65625 L 64.933594 22.769531 C 64.933594 22.121094 54.851563 9.121094 54.765625 8.070313 C 55.011719 8.015625 56.105469 7.660156 56.136719 7.660156 L 59.300781 7.660156 C 59.609375 7.660156 59.601563 7.769531 59.847656 7.933594 C 61.789063 7.933594 64.707031 10.621094 65.074219 12.191406 C 65.746094 12.011719 65.46875 11.269531 65.480469 10.402344 C 65.488281 9.53125 65.757813 9.355469 65.757813 8.484375 L 65.757813 2.300781 C 65.757813 1.871094 65.511719 1.914063 65.210938 1.753906 L 65.226563 1.890625 Z M 47.34375 4.234375 "/>
<path style=" stroke:none;fill-rule:evenodd;fill:rgb(0%,0%,0%);fill-opacity:1;" d="M 121.289063 31.289063 L 121.289063 31.5625 C 121.289063 32.414063 121.949219 32.9375 122.800781 32.9375 C 123.683594 32.9375 124.175781 32.355469 124.175781 31.425781 L 124.175781 31.289063 C 124.175781 30.664063 123.539063 30.050781 123.074219 30.050781 L 122.386719 30.050781 C 121.925781 30.050781 121.289063 30.664063 121.289063 31.289063 Z M 121.289063 31.289063 "/>
<path style=" stroke:none;fill-rule:evenodd;fill:rgb(0%,0%,0%);fill-opacity:1;" d="M 54.488281 26.203125 C 54.488281 25.746094 55.273438 25.316406 55.589844 25.105469 L 57.238281 26.910156 L 57.03125 26.953125 L 56.015625 27.871094 C 55.757813 27.691406 54.488281 26.453125 54.488281 26.203125 Z M 47.960938 20.03125 C 47.839844 20.449219 56.695313 33.992188 57.375 34.445313 C 57.738281 34.179688 60.949219 28.894531 60.949219 28.402344 C 60.949219 27.6875 55.09375 20.84375 54.765625 19.609375 C 53.570313 19.636719 53.433594 21.535156 52.839844 21.535156 C 52.503906 21.535156 51.023438 19.777344 51.101563 19.117188 C 51.179688 18.453125 51.890625 16.15625 52.152344 15.765625 C 51.710938 13.867188 49.847656 12.550781 49.539063 11.230469 L 49.0625 11.222656 Z M 47.960938 20.03125 "/>
<path style=" stroke:none;fill-rule:evenodd;fill:rgb(0%,0%,0%);fill-opacity:1;" d="M 123.488281 35.132813 L 123.488281 35.542969 C 123.488281 35.878906 124.117188 36.507813 124.449219 36.507813 L 125.410156 36.507813 C 125.863281 36.507813 126.375 35.992188 126.375 35.410156 L 126.375 34.996094 C 126.375 34.238281 125.753906 33.761719 125 33.761719 C 124.148438 33.761719 123.488281 34.277344 123.488281 35.132813 Z M 123.488281 35.132813 "/>
<path style=" stroke:none;fill-rule:evenodd;fill:rgb(0%,0%,0%);fill-opacity:1;" d="M 58.199219 37.882813 L 58.199219 38.15625 C 58.199219 38.578125 58.601563 38.707031 59.023438 38.707031 L 59.160156 38.707031 C 59.914063 38.707031 60.363281 37.167969 61.011719 36.734375 L 62.460938 38.707031 C 62.3125 38.984375 60.949219 41.539063 60.949219 41.589844 C 60.949219 41.816406 61.148438 42.277344 61.359375 42.277344 C 62.355469 42.277344 62.785156 40.808594 63.195313 39.988281 C 63.417969 39.539063 64.523438 37.367188 64.523438 37.058594 C 64.523438 36.328125 61.636719 33.96875 61.636719 33.621094 C 61.636719 32.898438 63.148438 30.96875 63.148438 30.324219 C 63.148438 30.011719 63.101563 30.164063 63.011719 29.777344 L 62.597656 29.777344 C 61.921875 29.777344 60.683594 32.886719 60.238281 33.601563 C 60.085938 33.851563 58.199219 37.871094 58.199219 37.882813 Z M 58.199219 37.882813 "/>
<path style=" stroke:none;fill-rule:evenodd;fill:rgb(0%,0%,0%);fill-opacity:1;" d="M 119.777344 42.277344 C 119.777344 42.515625 120.785156 43.238281 121.011719 43.238281 C 121.539063 43.238281 122.386719 42.496094 122.386719 42.003906 C 122.386719 41.464844 121.863281 40.765625 121.425781 40.765625 L 120.875 40.765625 C 120.003906 40.765625 119.777344 41.414063 119.777344 42.277344 Z M 119.777344 42.277344 "/>
<path style=" stroke:none;fill-rule:evenodd;fill:rgb(0%,0%,0%);fill-opacity:1;" d="M 82.097656 41.433594 C 82.433594 42.117188 84.359375 44.199219 85.140625 44.199219 C 85.398438 44.199219 86.375 42.996094 86.375 42.964844 C 86.375 42.585938 83.773438 40.496094 83.257813 40.132813 Z M 82.097656 41.433594 "/>
<path style=" stroke:none;fill-rule:evenodd;fill:rgb(0%,0%,0%);fill-opacity:1;" d="M 119.777344 42.277344 C 119.777344 41.414063 120.003906 40.765625 120.875 40.765625 L 121.425781 40.765625 C 121.863281 40.765625 122.386719 41.464844 122.386719 42.003906 C 122.386719 42.496094 121.539063 43.238281 121.011719 43.238281 C 120.785156 43.238281 119.777344 42.515625 119.777344 42.277344 Z M 103.421875 34.445313 L 103.421875 34.859375 C 103.421875 35.214844 106.144531 38.429688 106.445313 38.429688 C 106.941406 38.429688 110.679688 35.089844 111.667969 34.859375 C 112.132813 35.742188 115.925781 41.117188 115.925781 41.316406 C 115.925781 41.808594 111.429688 43.996094 111.117188 45.164063 L 126.375 45.847656 C 126.765625 45.109375 127.199219 43.253906 127.320313 42.261719 C 127.417969 41.480469 127.503906 41.273438 127.640625 40.382813 C 127.828125 39.15625 128.0625 39.265625 126.839844 39.0625 C 125.574219 38.851563 124.160156 38.65625 122.90625 38.464844 C 120.148438 38.035156 120.601563 38.699219 120.601563 36.507813 L 120.601563 35.542969 C 120.601563 33.964844 114.734375 26.617188 114.003906 26.617188 C 113.347656 26.617188 109.398438 29.90625 108.667969 30.488281 C 108.0625 30.96875 103.714844 34.367188 103.421875 34.445313 Z M 103.421875 34.445313 "/>
<path style=" stroke:none;fill-rule:evenodd;fill:rgb(0%,0%,0%);fill-opacity:1;" d="M 83.257813 40.132813 C 83.773438 40.496094 86.375 42.585938 86.375 42.964844 C 86.375 42.996094 85.398438 44.199219 85.140625 44.199219 C 84.359375 44.199219 82.433594 42.117188 82.097656 41.433594 Z M 78.679688 41.453125 L 78.679688 42.277344 C 78.679688 43.164063 83.078125 45.914063 83.078125 46.535156 C 83.078125 47.003906 79.523438 49.945313 78.953125 50.789063 C 79.191406 51.148438 81.039063 53.265625 81.429688 53.265625 C 82.101563 53.265625 88.550781 46.808594 88.988281 46.808594 L 89.125 46.808594 C 89.726563 46.808594 91.261719 49.144531 91.738281 49.144531 C 91.984375 49.144531 93.796875 47.691406 93.796875 47.359375 L 93.796875 47.222656 C 93.796875 46.46875 90.007813 42.273438 89.261719 41.726563 C 88.304688 41.027344 84.480469 37.605469 83.351563 37.605469 L 83.214844 37.605469 C 81.703125 37.605469 78.679688 40.453125 78.679688 41.453125 Z M 78.679688 41.453125 "/>
<path style=" stroke:none;fill-rule:evenodd;fill:rgb(0%,0%,0%);fill-opacity:1;" d="M 19.027344 21.808594 L 19.027344 21.945313 C 19.027344 22.695313 19.300781 22.703125 19.300781 23.453125 L 19.300781 24.28125 C 18.425781 24.261719 17.449219 23.453125 16.964844 23.453125 C 16.519531 23.453125 12.417969 28.871094 11.859375 29.617188 C 10.3125 31.65625 8.683594 34.253906 7.4375 36.597656 C 6.769531 37.855469 6.203125 39.09375 5.53125 40.328125 C 4.863281 41.558594 4.492188 43.105469 3.863281 44.429688 C 3.359375 45.488281 1.296875 52.03125 1.296875 53.265625 C 2.710938 53.597656 3.082031 53.226563 4.148438 54.121094 C 4.734375 54.617188 5.421875 55.539063 5.421875 56.5625 L 5.421875 56.839844 C 5.421875 58.410156 3.632813 60.136719 2.121094 60.136719 C 0.714844 60.136719 0.0585938 58.273438 0.0585938 61.695313 L 12.429688 62.058594 L 16.828125 62.058594 C 16.8125 61.371094 14.882813 58.285156 14.433594 57.582031 C 13.972656 56.855469 13.652344 56.132813 13.199219 55.382813 C 12.445313 54.121094 12.175781 54.640625 10.644531 54.640625 L 9.132813 54.640625 C 8.445313 54.640625 9.011719 53.023438 9.214844 52.523438 C 9.582031 51.621094 9.332031 50.753906 10.09375 50.246094 C 11.976563 50.683594 15.035156 51.082031 16.980469 51.328125 C 17.480469 51.394531 20.164063 51.894531 20.488281 51.707031 C 20.550781 51.664063 21.554688 49.027344 21.613281 48.84375 C 22.796875 45.011719 25.5625 41.804688 27.273438 38.566406 C 26.976563 38.003906 23.832031 35.957031 23.011719 35.957031 C 22.640625 35.957031 20.402344 39.683594 20.042969 40.269531 C 19.644531 40.921875 17.996094 45.023438 17.515625 45.023438 L 15.867188 45.023438 C 15.417969 45.023438 14.558594 45.039063 14.023438 44.941406 C 13.558594 44.855469 12.019531 45.078125 12.019531 44.613281 C 12.019531 43.832031 15.574219 37.578125 16.140625 36.78125 C 16.960938 35.621094 17.828125 34.476563 18.613281 33.34375 C 19.027344 32.746094 21.265625 30.421875 21.363281 30.050781 C 22.5625 30.078125 24.574219 32.9375 25.074219 32.9375 C 25.519531 32.9375 28.101563 29.527344 28.238281 28.953125 C 27.867188 28.855469 23.425781 24.242188 23.425781 24.007813 C 23.425781 23.726563 27.105469 16.546875 27.550781 15.628906 C 27.371094 15.363281 26.839844 14.664063 26.449219 14.664063 C 25.636719 14.664063 19.027344 20.824219 19.027344 21.808594 Z M 19.027344 21.808594 "/>
<path style=" stroke:none;fill-rule:evenodd;fill:rgb(0%,0%,0%);fill-opacity:1;" d="M 108.394531 57.695313 L 107.269531 56.839844 L 107.269531 56.289063 C 107.996094 56.09375 108.378906 55.046875 108.917969 55.046875 C 109.394531 55.046875 109.835938 55.804688 110.054688 56.191406 Z M 100.671875 58.074219 C 100.859375 58.355469 106.261719 61.507813 106.582031 61.507813 L 106.855469 61.507813 C 107.160156 61.507813 110.617188 58.726563 111.226563 58.320313 C 111.664063 58.03125 115.515625 55.070313 115.515625 54.914063 C 115.515625 54.386719 113.9375 54.042969 113.453125 53.128906 C 113.824219 52.882813 115.320313 51.480469 115.515625 51.480469 C 116.867188 51.480469 119.214844 52.964844 120.316406 52.160156 C 120.871094 51.757813 123.414063 49.824219 123.898438 49.695313 L 123.90625 49.359375 L 114.691406 48.457031 L 114.554688 48.457031 C 114.339844 48.457031 101.023438 57.546875 100.671875 58.074219 Z M 100.671875 58.074219 "/>
<path style=" stroke:none;fill-rule:evenodd;fill:rgb(0%,0%,0%);fill-opacity:1;" d="M 39.230469 51.617188 C 39.230469 51.921875 40.304688 52.71875 40.46875 52.71875 C 40.941406 52.71875 43.21875 50.121094 43.21875 49.832031 L 43.21875 49.695313 C 43.21875 49.292969 42.164063 48.628906 41.84375 48.457031 C 41.460938 49.03125 39.230469 51.058594 39.230469 51.617188 Z M 39.230469 51.617188 "/>
<path style=" stroke:none;fill-rule:evenodd;fill:rgb(0%,0%,0%);fill-opacity:1;" d="M 39.230469 51.617188 C 39.230469 51.058594 41.460938 49.03125 41.84375 48.457031 C 42.164063 48.628906 43.21875 49.292969 43.21875 49.695313 L 43.21875 49.832031 C 43.21875 50.121094 40.941406 52.71875 40.46875 52.71875 C 40.304688 52.71875 39.230469 51.921875 39.230469 51.617188 Z M 40.746094 56.289063 C 41.726563 56.289063 42.609375 54.972656 43.179688 54.328125 C 43.566406 53.894531 45.183594 52.246094 45.28125 51.894531 C 46.539063 51.917969 48.453125 55.367188 49.679688 56.015625 C 50.015625 55.789063 52.289063 53.9375 52.289063 53.679688 C 52.289063 52.847656 45.828125 46.347656 45.828125 45.984375 C 45.828125 45.265625 48.304688 43.710938 48.304688 43.371094 C 48.304688 42.710938 46.859375 41.09375 46.242188 41.039063 C 46.132813 41.339844 42.757813 43.621094 42.152344 44.234375 C 40.769531 45.628906 39.976563 46.582031 38.71875 48.085938 C 38.171875 48.738281 37.714844 49.433594 37.226563 50.160156 C 36.453125 51.308594 36.378906 51.382813 36.910156 52.699219 C 37.304688 53.667969 39.519531 56.289063 40.746094 56.289063 Z M 40.746094 56.289063 "/>
<path style=" stroke:none;fill-rule:evenodd;fill:rgb(0%,0%,0%);fill-opacity:1;" d="M 110.054688 56.191406 C 109.835938 55.804688 109.394531 55.046875 108.917969 55.046875 C 108.378906 55.046875 107.996094 56.09375 107.269531 56.289063 L 107.269531 56.839844 L 108.394531 57.695313 Z M 110.054688 56.191406 "/>
<path style=" stroke:none;fill-rule:evenodd;fill:rgb(0%,0%,0%);fill-opacity:1;" d="M 0.199219 57.664063 L 0.199219 58.347656 C 0.199219 58.832031 1.390625 59.3125 1.984375 59.3125 L 2.398438 59.3125 C 3.386719 59.3125 4.734375 58.042969 4.734375 57.113281 L 4.734375 56.289063 C 4.734375 55.511719 3.617188 54.226563 2.671875 54.226563 L 1.296875 54.226563 C 0.628906 54.226563 0.199219 57.039063 0.199219 57.664063 Z M 0.199219 57.664063 "/>
<path style=" stroke:none;fill-rule:evenodd;fill:rgb(0%,0%,0%);fill-opacity:1;" d="M 22.050781 62.46875 L 28.097656 62.058594 L 28.511719 62.058594 C 29.902344 62.058594 30.898438 62.140625 32.226563 62.191406 C 32.839844 62.214844 35.519531 62.914063 35.519531 62.058594 C 35.519531 61.527344 34.097656 58.085938 33.871094 57.113281 C 32.859375 57.113281 32.195313 57.191406 31.398438 57.246094 C 29.890625 57.367188 29.644531 57.457031 29.964844 56.371094 C 30.347656 55.089844 30.863281 53.527344 31.417969 52.460938 C 32.753906 49.898438 33.699219 47.984375 35.382813 45.710938 C 36.554688 44.128906 39.089844 41.496094 40.6875 40.292969 C 41.632813 39.589844 46.234375 35.957031 47.203125 35.957031 C 48.074219 35.957031 55.742188 49.832031 56.960938 49.832031 C 57.03125 49.832031 58.898438 48.839844 59.296875 48.730469 C 59.753906 48.601563 61.773438 48.289063 61.773438 47.773438 C 61.773438 47.617188 55.785156 38.230469 55.175781 37.332031 C 54.429688 36.226563 48.796875 27.027344 48.304688 27.027344 L 47.890625 27.027344 C 47.761719 27.382813 45.859375 28.113281 45.371094 28.355469 C 44.507813 28.785156 43.710938 29.257813 42.914063 29.746094 C 41.125 30.859375 39.976563 31.789063 38.351563 33.019531 C 35.15625 35.429688 33.234375 37.90625 30.675781 40.871094 C 28.390625 43.519531 26.574219 47.304688 24.984375 50.703125 C 24.628906 51.460938 20.625 62.59375 22.050781 62.46875 Z M 22.050781 62.46875 "/>
<path style=" stroke:none;fill-rule:evenodd;fill:rgb(0%,0%,0%);fill-opacity:1;" d="M 71.945313 22.90625 L 72.496094 27.992188 L 72.527344 34.3125 L 72.355469 36.644531 C 73.535156 36.644531 77.273438 35.246094 77.652344 34.589844 L 77.441406 30.871094 C 79.136719 30.914063 83.050781 32.855469 84.472656 33.464844 C 86.316406 34.257813 88.710938 36.097656 90.261719 37.292969 C 92.121094 38.734375 93.558594 40.320313 95.070313 42.105469 C 95.648438 42.78125 99.023438 47.261719 99.023438 47.910156 C 99.023438 48.34375 85.277344 57.316406 85.277344 57.664063 C 85.277344 57.796875 86.246094 59.777344 86.394531 60.117188 C 86.507813 60.371094 87.085938 62.746094 87.339844 62.746094 C 87.472656 62.746094 107.582031 49.566406 107.957031 49.007813 C 107.441406 46.804688 103.519531 40.882813 102.078125 39.359375 C 100.792969 37.996094 99.800781 36.460938 98.308594 35.296875 C 96.917969 34.210938 95.613281 32.808594 94.101563 31.671875 C 91.109375 29.425781 87.761719 27.683594 84.175781 26.066406 C 82.386719 25.257813 80.363281 24.714844 78.316406 24.09375 C 77.441406 23.828125 72.367188 22.742188 71.945313 22.90625 Z M 71.945313 22.90625 "/>
<path style=" stroke:none;fill-rule:evenodd;fill:rgb(0%,0%,0%);fill-opacity:1;" d="M 121.011719 61.644531 C 121.011719 64.496094 125.273438 63.132813 125.273438 60.960938 L 125.273438 60.683594 C 125.273438 58.328125 121.011719 59.179688 121.011719 61.644531 Z M 121.011719 61.644531 "/>
<path style=" stroke:none;fill-rule:evenodd;fill:rgb(0%,0%,0%);fill-opacity:1;" d="M 96.410156 59.722656 C 96.933594 60.8125 97.4375 60.960938 98.472656 61.507813 L 98.5625 61.621094 L 96.546875 63.15625 C 95.769531 62.976563 93.8125 61.785156 93.660156 61.785156 L 93.386719 61.785156 C 93.070313 61.785156 92.972656 61.878906 92.972656 62.195313 L 92.972656 62.46875 C 92.972656 63.03125 97.613281 65.21875 97.921875 65.21875 L 98.335938 65.21875 C 99.070313 65.21875 101.046875 62.332031 101.632813 62.332031 C 102.355469 62.332031 104.320313 63.707031 104.65625 63.707031 L 105.070313 63.707031 C 105.386719 63.707031 105.480469 63.609375 105.480469 63.289063 L 105.480469 63.15625 C 105.480469 62.546875 102.144531 61.199219 101.414063 60.90625 C 100.667969 60.605469 97.59375 58.898438 97.097656 58.898438 C 96.566406 58.898438 96.582031 59.363281 96.410156 59.722656 Z M 96.410156 59.722656 "/>
<path style=" stroke:none;fill-rule:evenodd;fill:rgb(0%,0%,0%);fill-opacity:1;" d="M 106.582031 64.941406 C 106.695313 65.367188 106.847656 65.492188 107.40625 65.492188 L 112.214844 65.492188 C 112.992188 65.492188 125.15625 56.097656 126.921875 54.914063 C 127.785156 56.707031 127.523438 60.011719 126.785156 61.648438 C 126.25 62.839844 125.976563 63.074219 125.101563 63.945313 C 124.75 64.296875 124.546875 64.601563 124.085938 64.855469 C 123.5 65.171875 123.09375 65.128906 123.074219 65.90625 L 125.414063 65.9375 L 133.246094 65.765625 L 133.300781 65.210938 L 132.851563 60.53125 L 132.617188 60.121094 L 130.773438 47.910156 L 130.773438 47.496094 C 129.660156 47.523438 120.34375 54.996094 118.648438 56.121094 C 116.640625 57.464844 114.601563 59.109375 112.65625 60.574219 C 111.816406 61.207031 107.105469 64.753906 106.582031 64.941406 Z M 106.582031 64.941406 "/>
<path style=" stroke:none;fill-rule:evenodd;fill:rgb(0%,0%,0%);fill-opacity:1;" d="M 31.949219 73.734375 C 31.859375 73.496094 29.644531 72.222656 29.335938 72.222656 L 28.921875 72.222656 C 28.660156 72.222656 28.375 72.46875 28.375 72.636719 C 28.375 73.367188 31.542969 74.605469 32.316406 75.015625 C 32.808594 75.277344 36.429688 77.164063 36.621094 77.164063 L 36.757813 77.164063 C 37.148438 77.164063 37.445313 76.695313 37.445313 76.34375 C 37.445313 75.390625 35.519531 74.746094 35.519531 74.417969 C 35.519531 74.058594 37.167969 72.910156 37.582031 72.910156 C 37.917969 72.910156 39.859375 74.285156 40.195313 74.285156 L 40.46875 74.285156 C 40.789063 74.285156 41.019531 74.054688 41.019531 73.734375 C 41.019531 72.996094 36.640625 71.117188 35.796875 70.710938 C 34.667969 71.308594 33.085938 73.710938 31.949219 73.734375 Z M 31.949219 73.734375 "/>
<path style=" stroke:none;fill-rule:evenodd;fill:rgb(0%,0%,0%);fill-opacity:1;" d="M 8.582031 74.972656 C 8.582031 75.703125 9.5 76.34375 10.230469 76.34375 C 11.242188 76.34375 12.84375 75.253906 12.84375 74.285156 L 12.84375 73.597656 C 12.84375 72.789063 12.097656 72.359375 11.332031 72.359375 C 9.808594 72.359375 8.582031 73.449219 8.582031 74.972656 Z M 8.582031 74.972656 "/>
<path style=" stroke:none;fill-rule:evenodd;fill:rgb(0%,0%,0%);fill-opacity:1;" d="M 56.550781 68.101563 C 56.550781 74.074219 61.15625 78.679688 67.132813 78.679688 C 72.824219 78.679688 77.453125 73.921875 77.453125 68.238281 C 77.453125 62.609375 72.691406 57.796875 67.132813 57.796875 C 61.402344 57.796875 56.550781 62.4375 56.550781 68.101563 Z M 56.550781 68.101563 "/>
<path style=" stroke:none;fill-rule:evenodd;fill:rgb(0%,0%,0%);fill-opacity:1;" d="M 23.839844 79.640625 C 23.839844 79.90625 24.691406 80.878906 24.800781 80.878906 C 25.339844 80.878906 25.722656 79.835938 26.449219 79.640625 L 26.449219 79.230469 C 26.449219 78.898438 25.820313 78.269531 25.488281 78.269531 C 25.246094 78.269531 23.839844 79.476563 23.839844 79.640625 Z M 23.839844 79.640625 "/>
<path style=" stroke:none;fill-rule:evenodd;fill:rgb(0%,0%,0%);fill-opacity:1;" d="M 56.550781 68.101563 C 56.550781 62.4375 61.402344 57.796875 67.132813 57.796875 C 72.691406 57.796875 77.453125 62.609375 77.453125 68.238281 C 77.453125 73.921875 72.824219 78.679688 67.132813 78.679688 C 61.15625 78.679688 56.550781 74.074219 56.550781 68.101563 Z M 54.625 67.828125 L 54.625 68.789063 C 54.625 75.367188 60.453125 80.742188 67.132813 80.742188 L 67.683594 80.742188 C 68.550781 80.742188 70.65625 80.136719 71.394531 79.914063 C 72.488281 79.589844 73.554688 78.871094 74.394531 78.246094 C 76.652344 76.554688 77.070313 75.582031 78.460938 73.101563 C 79.503906 71.238281 79.671875 67.695313 79.089844 65.355469 C 78.453125 62.792969 77.378906 61.101563 75.757813 59.480469 C 68.078125 51.789063 54.625 57.195313 54.625 67.828125 Z M 54.625 67.828125 "/>
<path style=" stroke:none;fill-rule:evenodd;fill:rgb(0%,0%,0%);fill-opacity:1;" d="M 129.535156 78.269531 L 129.535156 79.230469 C 129.535156 79.914063 130.246094 80.617188 130.714844 80.9375 C 131.699219 81.613281 131.976563 81.289063 133.109375 81.289063 C 133.761719 80.316406 134.070313 78.453125 134.070313 76.894531 C 133.148438 76.648438 133.203125 75.761719 131.347656 76.234375 C 130.628906 76.414063 129.535156 77.347656 129.535156 78.269531 Z M 129.535156 78.269531 "/>
<path style=" stroke:none;fill-rule:evenodd;fill:rgb(0%,0%,0%);fill-opacity:1;" d="M 54.625 67.828125 C 54.625 57.195313 68.078125 51.789063 75.757813 59.480469 C 77.378906 61.101563 78.453125 62.792969 79.089844 65.355469 C 79.671875 67.695313 79.503906 71.238281 78.460938 73.101563 C 77.070313 75.582031 76.652344 76.554688 74.394531 78.246094 C 73.554688 78.871094 72.488281 79.589844 71.394531 79.914063 C 70.65625 80.136719 68.550781 80.742188 67.683594 80.742188 L 67.132813 80.742188 C 60.453125 80.742188 54.625 75.367188 54.625 68.789063 Z M 65.617188 53.953125 L 64.109375 51.34375 C 63.445313 51.519531 63.421875 53.515625 63.421875 54.367188 C 62.136719 54.335938 62.105469 52.265625 60.949219 52.164063 L 60.949219 53.265625 C 60.949219 53.832031 61.300781 55.191406 60.8125 55.191406 C 60.445313 55.191406 58.664063 53.460938 58.4375 53.464844 C 57.6875 53.484375 59.375 56.289063 58.335938 56.289063 C 58.011719 56.289063 56.46875 55.191406 56.277344 55.191406 C 55.304688 55.191406 56.921875 57.554688 56.921875 57.957031 C 56.917969 58.539063 54.726563 57.269531 53.9375 57.246094 L 53.785156 57.339844 L 55.3125 59.996094 L 54.765625 59.996094 C 54.199219 59.996094 53.039063 59.449219 52.152344 59.449219 L 52.027344 59.546875 L 54.078125 62.195313 C 53.125 62.636719 51.082031 61.347656 51.132813 62.65625 L 53.113281 64.53125 C 52.265625 64.9375 50.445313 64.671875 50.25 65.445313 L 52.703125 66.589844 C 52.453125 67.523438 50.367188 67.332031 49.808594 68.402344 L 52.566406 69.203125 C 52.511719 69.824219 50.945313 70.714844 50.367188 70.851563 C 50.390625 71.996094 52.019531 71.421875 53.175781 72.019531 L 51.050781 73.734375 C 51.132813 74.039063 51.085938 74.148438 51.464844 74.148438 L 54.078125 74.148438 C 53.761719 75.324219 52.320313 75.472656 52.285156 76.871094 L 55.027344 76.292969 L 55.160156 76.414063 L 53.820313 78.769531 L 53.664063 78.679688 C 53.765625 79.871094 55.40625 78.292969 56.6875 78.269531 C 56.609375 79.234375 55.863281 80.195313 55.863281 81.015625 C 55.863281 81.820313 58.003906 80.070313 58.292969 79.996094 C 59.019531 79.8125 58.109375 82.496094 58.0625 83.074219 L 58.164063 83.199219 L 60.8125 81.152344 L 60.8125 83.898438 C 60.8125 84.421875 60.769531 83.949219 60.949219 84.3125 L 61.085938 84.417969 L 63.011719 82.113281 C 63.566406 83.164063 63.210938 85.0625 64.109375 85.136719 C 64.253906 84.597656 65.28125 82.652344 65.75 82.53125 L 66.722656 85.410156 C 67.445313 85.351563 67.949219 83.160156 68.183594 82.480469 L 69.609375 85.273438 C 70.242188 85.105469 70.414063 83.011719 70.433594 82.246094 C 71.683594 82.355469 71.574219 84.28125 72.90625 84.3125 L 72.90625 81.421875 C 73.636719 81.621094 74.886719 83.070313 75.3125 83.160156 C 76.171875 83.335938 74.660156 80.191406 75.378906 80.191406 C 75.867188 80.191406 77.195313 81.496094 78.09375 81.53125 L 77.167969 78.40625 C 77.84375 78.460938 80.054688 79.757813 80.054688 79.09375 C 80.054688 78.605469 78.746094 77.277344 78.6875 76.441406 L 81.820313 77.011719 L 81.902344 76.847656 L 79.933594 74.378906 L 80.054688 74.257813 L 82.664063 74.417969 C 82.894531 74.4375 83.078125 74.320313 83.078125 74.148438 C 83.078125 73.671875 81.257813 72.570313 81.003906 72.214844 C 80.257813 71.164063 83.765625 71.988281 83.765625 71.261719 C 83.765625 70.824219 81.828125 70.023438 81.386719 69.347656 L 84.175781 68.515625 L 84.152344 68.03125 L 81.28125 66.886719 L 81.230469 66.757813 L 83.765625 65.492188 C 83.695313 64.671875 83.3125 65.003906 82.492188 64.839844 C 81.945313 64.730469 81.386719 64.574219 80.878906 64.53125 C 80.925781 63.953125 82.550781 62.746094 83.078125 62.609375 C 82.980469 61.460938 80.945313 62.414063 79.902344 61.90625 L 81.960938 59.695313 L 81.820313 59.464844 L 78.679688 60.007813 L 78.558594 59.929688 L 80.144531 57.027344 L 80.011719 56.867188 L 77.167969 58.074219 C 77.164063 58.070313 77.03125 57.816406 77.03125 57.796875 C 77.03125 57.207031 77.96875 55.988281 77.992188 54.914063 C 77.117188 55.117188 75.925781 56.222656 75.425781 56.347656 C 74.644531 56.539063 75.796875 54.132813 75.378906 53.261719 L 72.90625 55.191406 L 72.90625 52.164063 C 71.710938 52.195313 71.371094 53.976563 70.335938 54.222656 L 69.882813 51.34375 C 68.859375 51.617188 68.835938 53.582031 67.957031 53.816406 C 67.769531 53.011719 67.539063 51.429688 66.824219 51.054688 Z M 65.617188 53.953125 "/>
<path style=" stroke:none;fill-rule:evenodd;fill:rgb(0%,0%,0%);fill-opacity:1;" d="M 23.839844 79.640625 C 23.839844 79.476563 25.246094 78.269531 25.488281 78.269531 C 25.820313 78.269531 26.449219 78.898438 26.449219 79.230469 L 26.449219 79.640625 C 25.722656 79.835938 25.339844 80.878906 24.800781 80.878906 C 24.691406 80.878906 23.839844 79.90625 23.839844 79.640625 Z M 18.203125 80.742188 C 18.203125 81.105469 19.957031 82.164063 20.265625 82.246094 L 20.265625 82.796875 C 19.511719 83.003906 18.675781 84.171875 18.203125 84.171875 C 16.714844 84.171875 14.683594 82.789063 13.5 83.457031 C 13.097656 83.6875 10.097656 85.769531 9.957031 85.960938 C 10.292969 86.414063 17.886719 87.335938 19.164063 87.335938 C 19.265625 87.335938 25.605469 83.089844 26.285156 82.636719 C 27.59375 81.765625 32.65625 78.71875 33.183594 77.71875 C 32.246094 77.46875 27.492188 74.285156 27.273438 74.285156 C 26.746094 74.285156 18.203125 80.710938 18.203125 80.742188 Z M 18.203125 80.742188 "/>
<path style=" stroke:none;fill-rule:evenodd;fill:rgb(0%,0%,0%);fill-opacity:1;" d="M 91.050781 86.511719 L 92.5625 87.746094 C 92.9375 87.183594 95.035156 84.863281 95.035156 84.449219 C 95.035156 84.023438 93.992188 83.523438 93.660156 83.351563 C 92.824219 84.078125 91.585938 85.496094 91.050781 86.511719 Z M 91.050781 86.511719 "/>
<path style=" stroke:none;fill-rule:evenodd;fill:rgb(0%,0%,0%);fill-opacity:1;" d="M 3.222656 88.019531 C 3.488281 88.019531 14.097656 80.285156 15.375 79.417969 C 16.789063 78.46875 27.238281 71.222656 27.410156 70.574219 C 26.542969 70.160156 24.828125 70.523438 23.699219 70.4375 C 21.890625 70.304688 22.203125 69.824219 20.757813 70.789063 C 19.347656 71.742188 17.402344 72.984375 16.175781 74.039063 C 15.546875 74.585938 7.109375 80.464844 7.070313 80.464844 L 6.65625 80.464844 L 6.65625 79.914063 C 6.65625 79.164063 6.382813 79.15625 6.382813 78.40625 L 6.382813 76.480469 C 6.382813 73.523438 9.042969 71.089844 11.085938 69.996094 L 10.640625 69.6875 L 8.71875 69.613281 L 0.609375 69.613281 C 0.609375 70.957031 0.9375 73.042969 1.144531 74.296875 C 1.40625 75.878906 1.457031 77.335938 1.769531 78.894531 C 1.996094 80.011719 2.734375 88.019531 3.222656 88.019531 Z M 3.222656 88.019531 "/>
<path style=" stroke:none;fill-rule:evenodd;fill:rgb(0%,0%,0%);fill-opacity:1;" d="M 11.191406 93.652344 C 11.527344 94.34375 11.480469 94.84375 12.503906 94.945313 C 13.035156 94.996094 13.804688 94.394531 13.804688 93.652344 L 13.804688 93.515625 C 13.804688 93.160156 12.949219 92.414063 12.707031 92.414063 C 11.738281 92.414063 11.527344 93.019531 11.191406 93.652344 Z M 11.191406 93.652344 "/>
<path style=" stroke:none;fill-rule:evenodd;fill:rgb(0%,0%,0%);fill-opacity:1;" d="M 91.050781 86.511719 C 91.585938 85.496094 92.824219 84.078125 93.660156 83.351563 C 93.992188 83.523438 95.035156 84.023438 95.035156 84.449219 C 95.035156 84.863281 92.9375 87.183594 92.5625 87.746094 Z M 88.988281 84.449219 C 88.410156 84.402344 85.125 80.785156 84.726563 80.191406 C 84.324219 80.386719 81.976563 82.324219 81.976563 82.664063 C 81.976563 83.503906 87.972656 89.09375 88.714844 90.492188 C 88.457031 90.664063 86.101563 92.820313 86.101563 92.964844 C 86.101563 93.429688 87.644531 94.910156 88.027344 95.164063 C 88.46875 94.78125 89.023438 94.515625 89.535156 94.199219 C 90.117188 93.84375 90.441406 93.414063 90.964844 93.019531 C 91.9375 92.289063 92.882813 91.539063 93.605469 90.578125 C 94.265625 89.699219 97.785156 85.429688 97.785156 84.585938 C 97.785156 82.917969 95.054688 79.914063 93.386719 79.914063 L 93.25 79.914063 C 92.414063 79.914063 91.417969 81.417969 90.96875 82.035156 C 90.515625 82.652344 89.148438 83.855469 88.988281 84.449219 Z M 88.988281 84.449219 "/>
<path style=" stroke:none;fill-rule:evenodd;fill:rgb(0%,0%,0%);fill-opacity:1;" d="M 47.203125 93.242188 C 47.203125 93.660156 49.988281 95.988281 50.089844 95.988281 C 50.601563 95.988281 51.328125 95.320313 51.328125 94.890625 L 51.328125 94.613281 C 51.328125 94.265625 48.96875 92.140625 48.578125 92.140625 L 48.441406 92.140625 C 48.128906 92.140625 47.203125 93.121094 47.203125 93.242188 Z M 47.203125 93.242188 "/>
<path style=" stroke:none;fill-rule:evenodd;fill:rgb(0%,0%,0%);fill-opacity:1;" d="M 47.203125 93.242188 C 47.203125 93.121094 48.128906 92.140625 48.441406 92.140625 L 48.578125 92.140625 C 48.96875 92.140625 51.328125 94.265625 51.328125 94.613281 L 51.328125 94.890625 C 51.328125 95.320313 50.601563 95.988281 50.089844 95.988281 C 49.988281 95.988281 47.203125 93.660156 47.203125 93.242188 Z M 44.316406 89.53125 C 44.222656 89.183594 42.3125 87.058594 41.980469 87.058594 L 41.84375 87.058594 C 41.566406 87.058594 39.78125 88.503906 39.78125 88.707031 C 39.78125 90.570313 48.402344 98.734375 50.226563 98.734375 C 51.820313 98.734375 54.902344 96.105469 54.902344 94.476563 L 54.902344 94.339844 C 54.902344 93.441406 53.441406 92.542969 52.875 91.96875 C 52.503906 91.59375 50.824219 90.023438 50.503906 89.808594 C 50.9375 88.984375 54.765625 86.019531 54.765625 85.6875 C 54.765625 85.40625 52.71875 83.074219 52.152344 83.074219 C 51.191406 83.074219 45.558594 89.503906 44.316406 89.53125 Z M 44.316406 89.53125 "/>
<path style=" stroke:none;fill-rule:evenodd;fill:rgb(0%,0%,0%);fill-opacity:1;" d="M 7.070313 100.382813 L 7.070313 100.523438 C 7.070313 101.1875 7.683594 101.894531 8.308594 101.894531 C 9.128906 101.894531 9.957031 101.292969 9.957031 100.660156 L 9.957031 99.699219 C 9.332031 99.472656 9.222656 98.726563 8.25 98.941406 C 7.546875 99.09375 7.070313 99.632813 7.070313 100.382813 Z M 7.070313 100.382813 "/>
<path style=" stroke:none;fill-rule:evenodd;fill:rgb(0%,0%,0%);fill-opacity:1;" d="M 9.269531 103.679688 L 9.269531 104.367188 C 9.269531 106.042969 12.109375 105.890625 12.144531 104.234375 C 12.1875 102.0625 9.269531 102.433594 9.269531 103.679688 Z M 9.269531 103.679688 "/>
<path style=" stroke:none;fill-rule:evenodd;fill:rgb(0%,0%,0%);fill-opacity:1;" d="M 70.019531 99.417969 C 70.019531 100.199219 72.539063 102.039063 73.042969 102.996094 C 72.835938 103.390625 71.53125 105.871094 71.53125 106.152344 C 71.53125 106.386719 71.714844 106.664063 71.808594 106.839844 C 73.105469 106.539063 73.78125 103.988281 74.371094 102.808594 C 74.605469 102.34375 76.480469 98.457031 76.480469 98.324219 C 76.480469 98.046875 75.910156 97.773438 75.519531 97.773438 L 75.378906 97.773438 C 74.800781 97.773438 74.023438 99.261719 73.730469 99.699219 C 73.398438 99.519531 72.21875 98.292969 72.21875 97.910156 L 72.21875 97.773438 C 72.21875 97.039063 73.59375 95.269531 73.59375 94.890625 C 73.59375 94.566406 73.414063 94.203125 73.042969 94.203125 L 72.90625 94.203125 C 72.347656 94.203125 70.019531 98.996094 70.019531 99.417969 Z M 70.019531 99.417969 "/>
<path style=" stroke:none;fill-rule:evenodd;fill:rgb(0%,0%,0%);fill-opacity:1;" d="M 11.191406 93.652344 C 11.527344 93.019531 11.738281 92.414063 12.707031 92.414063 C 12.949219 92.414063 13.804688 93.160156 13.804688 93.515625 L 13.804688 93.652344 C 13.804688 94.394531 13.035156 94.996094 12.503906 94.945313 C 11.480469 94.84375 11.527344 94.34375 11.191406 93.652344 Z M 5.832031 95.988281 L 5.832031 96.402344 L 9.285156 96.789063 L 9.691406 97.027344 L 13.117188 97.496094 C 13.117188 98.378906 12.84375 98.539063 12.84375 99.417969 L 12.84375 99.558594 C 12.84375 101.816406 18.449219 109.171875 19.441406 109.171875 C 19.890625 109.171875 29.832031 101.691406 30.160156 101.070313 L 26.996094 97.359375 L 22.050781 100.933594 C 21.628906 100.648438 17.652344 94.859375 17.652344 94.476563 C 17.652344 93.796875 22.160156 91.933594 22.464844 90.59375 L 8.582031 89.808594 L 7.480469 89.808594 C 6.808594 89.808594 5.832031 94.859375 5.832031 95.988281 Z M 5.832031 95.988281 "/>
<path style=" stroke:none;fill-rule:evenodd;fill:rgb(0%,0%,0%);fill-opacity:1;" d="M 98.609375 73.597656 L 100.257813 78.816406 C 100.566406 78.890625 100.574219 78.953125 100.945313 78.953125 L 101.363281 79.003906 L 104.382813 78.679688 C 104.382813 81.898438 99.753906 89.738281 98.027344 91.558594 C 96.316406 93.359375 95.015625 94.65625 93.214844 96.367188 C 92.671875 96.882813 88.007813 100.246094 87.476563 100.246094 C 86.660156 100.246094 78.351563 86.648438 77.578125 86.648438 C 76.902344 86.648438 75.6875 87.503906 75.089844 87.730469 C 74.28125 88.039063 72.953125 88.082031 72.496094 88.707031 C 74.796875 92.140625 77.0625 95.578125 79.367188 99.011719 C 80.09375 100.089844 85.890625 109.171875 86.375 109.171875 C 88.09375 109.171875 94.550781 104.433594 95.960938 103.367188 C 98.582031 101.390625 101.496094 98.164063 103.476563 95.496094 C 105.609375 92.621094 107.667969 89.289063 109.125 85.753906 C 109.820313 84.058594 110.65625 81.828125 111.109375 80.042969 C 111.664063 77.882813 111.96875 75.835938 112.492188 73.597656 C 112.242188 73.429688 112.25 73.324219 111.941406 73.324219 C 110.949219 73.324219 110.078125 73.539063 108.773438 73.59375 C 107.738281 73.632813 106.613281 73.734375 105.34375 73.734375 C 103.140625 73.734375 100.867188 73.597656 98.609375 73.597656 Z M 98.609375 73.597656 "/>
<path style=" stroke:none;fill-rule:evenodd;fill:rgb(0%,0%,0%);fill-opacity:1;" d="M 77.71875 109.585938 C 77.71875 109.9375 78.832031 111.011719 79.15625 111.3125 L 80.328125 110.136719 L 78.679688 108.488281 C 78.550781 108.609375 77.71875 109.464844 77.71875 109.585938 Z M 77.71875 109.585938 "/>
<path style=" stroke:none;fill-rule:evenodd;fill:rgb(0%,0%,0%);fill-opacity:1;" d="M 121.699219 81.015625 L 125.136719 80.878906 C 125.863281 80.835938 125.21875 82.398438 125.082031 82.886719 C 124.867188 83.664063 124.761719 84.519531 124.585938 85.273438 C 124.335938 85.332031 124.175781 85.429688 124.046875 85.34375 L 114.554688 83.898438 L 114.140625 83.898438 C 113.714844 83.898438 112.769531 86.886719 112.601563 87.445313 C 112.378906 88.179688 111.371094 90.277344 110.953125 91.015625 C 110.417969 91.957031 107.28125 97.039063 107.269531 97.636719 C 108.058594 97.820313 111.207031 99.972656 111.390625 99.972656 C 111.878906 99.972656 114.105469 96.195313 114.417969 95.578125 C 114.742188 94.9375 115.429688 93.671875 115.625 93.074219 C 115.777344 92.605469 116.386719 90.632813 116.890625 90.632813 L 120.332031 90.578125 L 122.386719 90.90625 C 122.335938 93.203125 114.308594 105.742188 113.042969 105.742188 C 112.289063 105.742188 110.175781 102.9375 109.191406 102.855469 C 108.988281 103.621094 106.582031 106.179688 106.582031 106.703125 C 106.582031 107.378906 111.390625 111.316406 111.390625 111.785156 C 111.390625 112.574219 107.542969 119.066406 107.542969 120.164063 C 107.542969 120.46875 108.242188 121.121094 108.367188 121.121094 C 109.832031 121.121094 114.933594 115.398438 115.789063 114.121094 C 115.789063 113.640625 115.433594 111.664063 115.617188 111.480469 C 115.902344 111.195313 117.226563 112.199219 117.714844 112.199219 C 118.855469 112.199219 125.308594 102.359375 126.164063 100.722656 C 127.257813 98.636719 128.613281 96.394531 129.417969 94.085938 C 129.921875 92.632813 131.871094 88.074219 131.871094 86.511719 C 132.132813 86.121094 132.972656 83.113281 132.972656 82.527344 C 132.972656 82.21875 132.863281 82.222656 132.695313 81.976563 C 130.382813 81.976563 128.847656 81.042969 128.847656 78.816406 L 128.847656 78.40625 C 128.847656 77.3125 129.726563 76.335938 130.4375 75.871094 C 131.804688 74.976563 132.742188 75.792969 133.65625 75.792969 C 133.824219 75.792969 134.070313 75.511719 134.070313 75.246094 L 134.070313 74.007813 C 134.070313 73.691406 133.976563 73.597656 133.65625 73.597656 L 117.300781 73.597656 C 117.316406 74.3125 121.203125 80.679688 121.699219 81.015625 Z M 121.699219 81.015625 "/>
<path style=" stroke:none;fill-rule:evenodd;fill:rgb(0%,0%,0%);fill-opacity:1;" d="M 25.625 86.785156 C 26.511719 88.457031 27.304688 90.214844 28.191406 91.914063 C 28.890625 93.246094 30.363281 95.359375 31.324219 96.476563 C 34.164063 99.78125 35.808594 101.421875 39.09375 104.230469 C 41.25 106.070313 45.898438 108.914063 48.796875 110.058594 C 50.703125 110.808594 52.496094 111.351563 54.433594 112.117188 C 55.339844 112.472656 59.757813 113.570313 60.8125 113.570313 L 61.234375 113.570313 L 60.8125 107.253906 C 60.65625 105.152344 61.25 102.199219 61.097656 100.371094 C 61.015625 99.367188 59.289063 100.195313 58.667969 100.4375 C 58.152344 100.640625 56.300781 101.308594 55.804688 101.347656 L 56 105.054688 L 56 105.464844 L 55.589844 105.464844 C 54.382813 105.464844 49.894531 103.246094 48.855469 102.71875 C 46.539063 101.535156 45.125 100.308594 43.136719 98.816406 C 41.789063 97.808594 39.457031 95.371094 38.460938 94.011719 C 37.921875 93.277344 34.695313 88.761719 34.695313 88.160156 C 34.695313 87.410156 48.578125 79.230469 48.578125 78.40625 C 48.578125 78.378906 47.636719 76.34375 47.503906 76.039063 C 47.300781 75.59375 46.792969 73.460938 46.515625 73.460938 C 45.988281 73.460938 28.101563 85.476563 25.625 86.785156 Z M 25.625 86.785156 "/>
<path style=" stroke:none;fill-rule:evenodd;fill:rgb(0%,0%,0%);fill-opacity:1;" d="M 92.148438 122.226563 C 92.148438 121.5625 92.582031 121.121094 93.25 121.121094 C 93.960938 121.121094 94.625 121.472656 94.625 122.089844 L 94.625 122.496094 C 94.625 122.890625 94.109375 123.117188 93.9375 123.597656 L 93.25 123.597656 C 92.695313 123.597656 92.148438 122.90625 92.148438 122.226563 Z M 96.824219 107.664063 C 96.824219 107.910156 99.972656 111.945313 100.394531 112.746094 C 100.160156 113.097656 94.347656 117.144531 94.074219 117.144531 L 93.660156 117.144531 C 93.445313 116.210938 90.957031 112.539063 90.101563 112.472656 L 89.40625 127.167969 L 89.675781 127.859375 L 90.226563 127.859375 C 90.246094 127.859375 92.4375 128.484375 92.808594 128.574219 C 93.675781 128.785156 94.804688 128.875 95.71875 129.082031 L 96.144531 128.957031 L 97.234375 121.671875 C 98.773438 121.671875 99.503906 122.355469 100.976563 121.429688 C 101.992188 120.792969 102.898438 120.328125 103.859375 119.640625 C 104.476563 119.199219 108.78125 115.609375 108.78125 115.21875 C 108.78125 114.855469 105.320313 110.605469 104.832031 109.960938 C 104.292969 109.253906 100.90625 105.011719 100.808594 104.640625 C 100.070313 104.660156 96.824219 107.511719 96.824219 107.664063 Z M 96.824219 107.664063 "/>
<path style=" stroke:none;fill-rule:evenodd;fill:rgb(0%,0%,0%);fill-opacity:1;" d="M 92.148438 122.226563 C 92.148438 122.90625 92.695313 123.597656 93.25 123.597656 L 93.9375 123.597656 C 94.109375 123.117188 94.625 122.890625 94.625 122.496094 L 94.625 122.089844 C 94.625 121.472656 93.960938 121.121094 93.25 121.121094 C 92.582031 121.121094 92.148438 121.5625 92.148438 122.226563 Z M 92.148438 122.226563 "/>
<path style=" stroke:none;fill-rule:evenodd;fill:rgb(0%,0%,0%);fill-opacity:1;" d="M 77.71875 109.585938 C 77.71875 109.464844 78.550781 108.609375 78.679688 108.488281 L 80.328125 110.136719 L 79.15625 111.3125 C 78.832031 111.011719 77.71875 109.9375 77.71875 109.585938 Z M 73.730469 108.078125 C 73.730469 108.417969 76.664063 111.921875 77.085938 112.554688 C 77.625 113.347656 79.894531 116.703125 80.605469 116.867188 L 81.871094 114.828125 C 82.453125 114.949219 83.765625 116.457031 83.765625 116.867188 L 83.765625 117.003906 C 83.765625 118.140625 82.941406 119.488281 82.941406 120.851563 L 82.941406 121.121094 C 82.941406 121.558594 85.339844 124.3125 85.550781 125.109375 C 86.261719 124.636719 86.257813 121.792969 86.460938 120.660156 C 86.640625 119.644531 86.925781 116.820313 86.925781 115.90625 C 86.925781 115.695313 77.722656 102.265625 77.167969 101.894531 C 76.835938 102.390625 73.730469 107.769531 73.730469 107.941406 Z M 73.730469 108.078125 "/>
<path style=" stroke:none;fill-rule:evenodd;fill:rgb(0%,0%,0%);fill-opacity:1;" d="M 102.320313 123.871094 C 102.320313 124.640625 102.746094 125.386719 103.558594 125.386719 L 104.105469 125.386719 C 104.859375 125.386719 105.34375 124.664063 105.34375 124.011719 C 105.34375 123.355469 104.859375 122.636719 104.105469 122.636719 L 103.832031 122.636719 C 102.980469 122.636719 102.320313 123.121094 102.320313 123.871094 Z M 102.320313 123.871094 "/>
<path style=" stroke:none;fill-rule:evenodd;fill:rgb(0%,0%,0%);fill-opacity:1;" d="M 72.082031 124.285156 C 72.082031 125.347656 73.34375 126.621094 74.554688 126.621094 L 74.695313 126.621094 C 75.277344 126.621094 76.066406 125.570313 76.066406 124.972656 C 76.066406 123.882813 74.996094 122.363281 73.867188 122.363281 L 73.179688 122.363281 C 72.648438 122.363281 72.082031 123.117188 72.082031 123.738281 Z M 72.082031 124.285156 "/>
<path style=" stroke:none;fill-rule:evenodd;fill:rgb(0%,0%,0%);fill-opacity:1;" d="M 99.707031 124.835938 C 98.429688 124.835938 98.175781 127.582031 99.847656 127.582031 L 100.394531 127.582031 C 101.136719 127.582031 101.632813 126.902344 101.632813 126.207031 L 101.632813 126.070313 C 101.632813 125.738281 100.929688 124.835938 100.535156 124.835938 Z M 99.707031 124.835938 "/>
<g clip-path="url(#clip1)" clip-rule="nonzero">
<path style=" stroke:none;fill-rule:evenodd;fill:rgb(0%,0%,0%);fill-opacity:1;" d="M 13.390625 108.902344 C 13.390625 109.621094 19.378906 116.179688 20.402344 116.179688 L 21.089844 116.179688 C 21.65625 116.179688 23.011719 115.828125 23.011719 116.320313 C 23.011719 116.8125 22.1875 117.777344 22.1875 118.378906 C 22.1875 118.714844 27.578125 122.890625 28.273438 123.421875 C 29.613281 124.449219 33.589844 127.144531 35.089844 127.738281 C 37.488281 128.683594 39.835938 130.238281 42.710938 131.25 C 44.410156 131.847656 49.363281 133.765625 51.191406 133.765625 C 51.4375 133.929688 51.433594 134.039063 51.738281 134.039063 C 52.300781 134.039063 52.082031 132.207031 52.726563 131.316406 C 53.140625 130.746094 53.996094 129.917969 54.902344 129.917969 L 55.726563 129.917969 C 57.175781 129.917969 58.75 131.523438 58.75 132.941406 L 58.75 133.488281 C 58.75 134.34375 58.335938 134.527344 58.335938 134.863281 C 58.335938 135.03125 58.621094 135.277344 58.886719 135.277344 L 59.710938 135.277344 C 60.132813 135.277344 60.265625 135.144531 60.535156 135 L 60.773438 118.929688 L 60.8125 118.515625 C 59.878906 118.539063 54.566406 121.878906 53.390625 122.496094 C 53.390625 123.324219 53.386719 124.148438 53.390625 124.972656 C 53.390625 126.039063 53.667969 126.65625 52.839844 126.507813 C 51.773438 126.3125 49.828125 125.542969 48.992188 125.523438 L 50.585938 115.074219 C 50.320313 114.605469 47.769531 113.78125 46.988281 113.511719 C 46.253906 113.261719 44.28125 112.253906 43.574219 111.84375 C 42.816406 111.402344 37.382813 108.078125 37.171875 108.078125 C 36.96875 108.078125 34.695313 111.683594 34.695313 112.199219 C 34.695313 112.988281 42.121094 117.15625 43.628906 117.28125 C 43.835938 118.15625 43.628906 119.253906 43.628906 120.441406 C 43.628906 121.15625 43.921875 123.324219 43.21875 123.324219 C 42.652344 123.324219 36.199219 119.640625 35.484375 119.101563 C 34.28125 118.195313 33.253906 117.632813 32.046875 116.632813 C 31.609375 116.269531 29.007813 114.039063 28.785156 113.984375 L 28.785156 113.292969 C 29.101563 113.183594 31.671875 110.316406 31.671875 109.996094 C 31.671875 109.878906 28.140625 107.117188 27.824219 107.117188 C 27.390625 107.117188 23.246094 111.917969 22.601563 111.917969 C 22.410156 111.917969 14.855469 107.796875 14.492188 107.796875 C 14.214844 107.796875 13.390625 108.480469 13.390625 108.761719 Z M 13.390625 108.902344 "/>
</g>
<path style=" stroke:none;fill-rule:evenodd;fill:rgb(0%,0%,0%);fill-opacity:1;" d="M 73.769531 119.164063 C 74.628906 120.292969 80.152344 127.617188 80.328125 128.269531 C 80.167969 128.347656 78.109375 128.820313 77.855469 128.820313 L 76.207031 128.820313 C 73.839844 128.820313 70.316406 126.152344 69.882813 124.285156 C 69.496094 124.320313 69.332031 124.285156 69.332031 124.699219 L 69.332031 133.625 C 69.332031 134.117188 69.398438 134.726563 69.882813 134.726563 L 70.019531 134.726563 C 70.71875 134.726563 72.941406 134.039063 73.867188 134.039063 L 74.832031 134.039063 L 74.832031 133.765625 L 75.65625 133.765625 C 76.21875 133.765625 78.316406 133.460938 78.773438 133.308594 C 79.382813 133.097656 81.128906 133.078125 81.945313 132.90625 C 82.246094 132.84375 84.859375 132.386719 84.996094 132.386719 C 85.589844 132.386719 87.75 132.234375 87.75 131.703125 L 87.75 131.566406 C 87.75 131.410156 79.761719 120.707031 78.953125 119.617188 C 77.78125 118.03125 70.875 108.253906 70.019531 107.796875 C 69.773438 108.855469 69.90625 110.378906 69.886719 111.652344 C 69.863281 113.476563 69.363281 113.234375 70.433594 114.667969 C 71.550781 116.167969 72.617188 117.648438 73.769531 119.164063 Z M 73.769531 119.164063 "/>
<g clip-path="url(#clip2)" clip-rule="nonzero">
<path style=" stroke:none;fill-rule:evenodd;fill:rgb(0%,0%,0%);fill-opacity:1;" d="M 52.839844 133.625 C 52.839844 134.730469 53.550781 134.640625 54.480469 134.734375 C 55.261719 134.816406 55.78125 135.136719 56.824219 135.136719 L 56.960938 135.136719 C 57.417969 135.136719 57.925781 134.195313 57.925781 133.902344 L 57.925781 132.390625 C 57.925781 131.507813 56.496094 130.605469 55.3125 130.605469 C 54.054688 130.605469 52.839844 131.636719 52.839844 132.804688 Z M 52.839844 133.625 "/>
</g>
</g>
</svg>
